<svg width="60" height="60" viewBox="0 0 60 60" fill="none" xmlns="http://www.w3.org/2000/svg">
<g clip-path="url(#clip0_1060_56)">
<path fill-rule="evenodd" clip-rule="evenodd" d="M28.7326 0.169941C27.1575 0.608222 25.8646 1.80646 25.3314 3.32205L25.1182 3.92803L22.7946 3.98662C20.8903 4.03467 20.404 4.08178 20.1004 4.24795C19.624 4.50869 19.2754 4.956 19.1046 5.52588L18.9689 5.97881H14.8212C10.0702 5.97881 9.51741 6.04807 8.37694 6.78646C7.21268 7.54033 6.486 8.55318 6.18084 9.84764C6.02346 10.5155 6.00155 13.3165 6.00002 32.9453C5.99885 47.4673 6.03963 55.5006 6.11639 55.9054C6.47885 57.8169 7.90151 59.3253 9.81096 59.8226C10.4172 59.9806 12.8615 60.0022 30.0217 60.0022C47.1819 60.0022 49.6262 59.9806 50.2324 59.8226C52.1419 59.3253 53.5646 57.8169 53.927 55.9054C54.0038 55.5006 54.0446 47.4673 54.0434 32.9453C54.0419 13.3165 54.0199 10.5155 53.8626 9.84764C53.5574 8.55318 52.8307 7.54033 51.6665 6.78646C50.526 6.04807 49.9732 5.97881 45.2222 5.97881H41.0745L40.9388 5.52588C40.768 4.956 40.4194 4.50869 39.943 4.24795C39.6394 4.08178 39.1531 4.03467 37.2488 3.98662L34.9252 3.92803L34.712 3.32205C33.8631 0.908808 31.1732 -0.509161 28.7326 0.169941ZM31.0221 2.18978C31.644 2.40178 32.6271 3.27881 32.7442 3.72623L32.8123 3.98662H30.0217H27.2311L27.2992 3.72623C27.3367 3.58291 27.6115 3.22162 27.9098 2.92326C28.7799 2.05326 29.8684 1.79674 31.0221 2.18978ZM39.0451 8.56279C39.0451 11.2552 38.9728 11.706 38.5125 11.8826C38.2647 11.9776 21.7787 11.9776 21.5309 11.8826C21.0706 11.706 20.9983 11.2552 20.9983 8.56279V5.97881H30.0217H39.0451V8.56279ZM19.0061 8.96111V9.95111L15.2268 9.9865C11.517 10.0211 11.4395 10.0267 11.0139 10.2913C10.7755 10.4397 10.4591 10.7561 10.3108 10.9944L10.0412 11.428L10.0106 32.739C9.99049 46.8708 10.0201 54.1987 10.099 54.4913C10.2618 55.0961 10.6358 55.5376 11.2039 55.7957C11.6604 56.003 12.3041 56.0128 25.5765 56.0153C37.9142 56.0176 39.5427 55.997 40.1078 55.8322C40.7145 55.6553 40.9492 55.4424 45.1128 51.2912C48.1598 48.2531 49.5599 46.7763 49.7417 46.4085L50.0022 45.8812V28.6546V11.428L49.7326 10.9944C49.5843 10.7561 49.2679 10.4397 49.0295 10.2913C48.6039 10.0267 48.5264 10.0211 44.8166 9.9865L41.0373 9.95111V8.95455V7.95787L45.4026 7.99373C50.1999 8.0331 50.1708 8.029 51.0281 8.78182C51.2608 8.98607 51.5733 9.40139 51.7227 9.70467L51.9944 10.2562L52.0252 32.7504C52.0589 57.4935 52.1024 55.9538 51.3453 56.8676C51.1449 57.1094 50.7344 57.4521 50.433 57.6293L49.885 57.9515H30.0217H10.1584L9.67292 57.6918C9.01338 57.339 8.37272 56.5596 8.16354 55.8552C8.01342 55.3498 7.99081 52.3179 7.99327 33.0571C7.99526 18.3221 8.03663 10.6645 8.11631 10.3147C8.35409 9.27002 9.17522 8.40939 10.196 8.13447C10.5851 8.02971 11.9438 7.98447 14.8752 7.97885L19.0061 7.97099V8.96111ZM19.4764 12.5257C19.8294 13.0995 20.4239 13.5946 21.0352 13.8238C21.256 13.9067 24.2473 13.9476 30.0746 13.9476H38.784L39.4126 13.6213C39.8808 13.3783 40.156 13.1236 40.4906 12.6235L40.9399 11.952L44.475 11.9829L48.01 12.014L48.0396 28.5081L48.0694 45.0022H44.3374C40.6578 45.0022 40.5982 45.0061 40.0889 45.2747C39.767 45.4445 39.4739 45.7204 39.3107 46.0071C39.0549 46.4567 39.049 46.5525 39.047 50.2469L39.0451 54.0266L25.5393 53.9969L12.0334 53.9671L12.0033 33.1077C11.9868 21.6351 11.9984 12.1825 12.029 12.1019C12.0719 11.9891 12.8965 11.9554 15.6051 11.9554H19.1254L19.4764 12.5257ZM18.1272 16.2837C17.8694 16.4056 17.5185 16.6285 17.3475 16.7792C17.0662 17.027 14.5902 20.5048 14.1908 21.2132C14.0543 21.4553 14.0256 22.6143 14.0256 27.8929C14.0256 31.4056 14.0651 34.4206 14.1135 34.5928C14.2392 35.0413 14.7717 35.6328 15.2175 35.819C15.5273 35.9483 17.0235 35.9785 23.0746 35.9769L30.549 35.9749L31.0178 35.7127C31.3278 35.5394 31.5768 35.272 31.7528 34.9237L32.0189 34.3968L31.9872 27.8929L31.9553 21.389L30.8058 19.3382C29.5783 17.1481 29.1976 16.6582 28.4371 16.29C27.9808 16.0691 27.7104 16.0571 23.2757 16.0595C18.9325 16.0619 18.5622 16.078 18.1272 16.2837ZM27.7774 18.2542C27.9789 18.4244 28.8498 19.8374 28.8498 19.994C28.8498 20.02 26.2922 20.0413 23.1662 20.0413C20.0403 20.0413 17.4826 20.0088 17.4826 19.9691C17.4826 19.8672 18.2855 18.7569 18.6381 18.3714L18.9327 18.0491H23.2337C27.1594 18.0491 27.556 18.0671 27.7774 18.2542ZM30.0217 28.0101V33.9866H23.049H16.0764V28.0101V22.0335H23.049H30.0217V28.0101ZM35.5881 23.1102C34.9866 23.4611 34.8734 24.2005 35.3485 24.6755L35.636 24.9632H40.0412H44.4464L44.734 24.6755C45.1065 24.3031 45.1084 23.7881 44.7389 23.3584L44.4563 23.0296L40.1393 23.0016C37.0173 22.9813 35.7576 23.0114 35.5881 23.1102ZM35.7639 27.0353C35.0536 27.3063 34.8181 28.21 35.3319 28.6928C35.6005 28.9451 35.6463 28.9476 40.0248 28.9476H44.4464L44.734 28.6599C45.1065 28.2874 45.1084 27.7725 44.739 27.3428L44.4563 27.014L40.198 26.9911C37.8559 26.9786 35.8606 26.9984 35.7639 27.0353ZM18.3563 30.2899C18.1576 30.4885 18.0686 30.7078 18.0686 30.9983C18.0686 31.2888 18.1576 31.5082 18.3563 31.7067C18.6378 31.9883 18.6837 31.9944 20.5295 31.9944C22.3753 31.9944 22.4213 31.9883 22.7028 31.7067C22.9014 31.5082 22.9905 31.2888 22.9905 30.9983C22.9905 30.7078 22.9014 30.4885 22.7028 30.2899C22.4213 30.0083 22.3753 30.0022 20.5295 30.0022C18.6837 30.0022 18.6378 30.0083 18.3563 30.2899ZM35.3155 31.3281C34.9524 31.7147 34.974 32.3408 35.3632 32.7065L35.6657 32.9905H40.0609H44.4562L44.7389 32.6617C45.1084 32.2321 45.1065 31.717 44.734 31.3446L44.4464 31.0569H40.0084H35.5704L35.3155 31.3281ZM26.6969 39.9544L25.7444 40.8832L25.3681 40.5461C24.7403 39.9837 24.3953 39.9496 19.7265 39.9871L15.4143 40.0218L14.9433 40.3336C14.0287 40.9392 14.0256 40.958 14.0256 45.9983C14.0256 51.0387 14.0287 51.0574 14.9433 51.6631L15.4143 51.9749L19.7265 52.0096C22.4796 52.0317 24.2038 51.9997 24.4954 51.9213C25.1149 51.7545 25.5552 51.3845 25.8151 50.8123C26.0105 50.3821 26.0324 49.989 26.0348 46.8828L26.0373 43.4313L27.5022 41.9508C28.8478 40.5908 28.967 40.435 28.967 40.0357C28.967 39.4743 28.5467 39.0257 28.0205 39.0257C27.7151 39.0257 27.4806 39.1901 26.6969 39.9544ZM24.0196 42.3069C24.0468 42.5481 23.7001 42.9516 22.0579 44.5896L20.0631 46.5794L19.3881 45.9213C18.3258 44.8858 17.9283 44.7729 17.3564 45.3448C16.7529 45.9483 16.848 46.1727 18.3379 47.6626C20.1456 49.4704 19.9425 49.4942 22.2495 47.2044L24.0451 45.4222V47.7318V50.0413H20.0608H16.0764V45.9968V41.9522L20.0315 41.9831L23.9865 42.014L24.0196 42.3069ZM46.5451 47.0247C46.5451 47.0413 45.3059 48.2933 43.7912 49.8069L41.0373 52.559V49.7767V46.9944H43.7912C45.3059 46.9944 46.5451 47.008 46.5451 47.0247Z" fill="url(#paint0_linear_1060_56)"/>
</g>
<defs>
<linearGradient id="paint0_linear_1060_56" x1="6" y1="0" x2="66.0874" y2="43.4058" gradientUnits="userSpaceOnUse">
<stop stop-color="#594372"/>
<stop offset="1" stop-color="#7A5B9E"/>
</linearGradient>
<clipPath id="clip0_1060_56">
<rect width="60" height="60" fill="white"/>
</clipPath>
</defs>
</svg>
